<?xml version="1.0" encoding="iso-8859-1"?>
<!-- Uploaded to: SVG Repo, www.svgrepo.com, Generator: SVG Repo Mixer Tools -->
<svg height="800px" width="800px" version="1.1" id="Layer_1" xmlns="http://www.w3.org/2000/svg" xmlns:xlink="http://www.w3.org/1999/xlink" 
	 viewBox="0 0 512 512" xml:space="preserve">
<path style="fill:#D5D2BD;" d="M82.827,182.557l44.686,279.304C131.999,489.9,182.416,512,243.951,512s111.952-22.1,116.438-50.138
	l44.687-279.304L82.827,182.557z"/>
<g>
	<path style="fill:#AB5034;" d="M123.797,438.634l3.716,23.228C131.999,489.9,182.416,512,243.951,512
		c49.151,0,91.182-14.107,108.405-34.071c-23.281,6.533-47.46,9.977-72.265,9.977C223.688,487.906,170.521,470.102,123.797,438.634z
		"/>
	<path style="fill:#AB5034;" d="M331.626,385.507c14.19,0,28.105-1.499,41.673-4.336l13.782-86.14
		c-61.459-2.509-114.614-47.285-142.467-112.474H94.011C133.014,301.787,224.714,385.507,331.626,385.507z"/>
</g>
<path style="opacity:0.2;fill:#493023;enable-background:new    ;" d="M82.827,182.557c4.188,26.171,22.525,47.855,47.625,56.364
	c26.737,9.063,57.493,14.712,90.708,16.481c12.781,0.681,22.79,11.253,22.79,24.05V473.03c0,14.373-12.512,25.562-26.794,23.948
	c-31.275-3.533-53.341-12.818-67.28-20.876c-11.037-6.384-18.485-12.805-22.823-17.102l0.458,2.861
	C131.999,489.9,182.416,512,243.951,512s111.952-22.1,116.438-50.138l44.687-279.304L82.827,182.557z"/>
<path style="opacity:0.1;fill:#FEFBE1;enable-background:new    ;" d="M82.827,182.557l44.686,279.304
	c2.413,15.08,18.125,28.436,41.694,37.565L137.52,182.557H82.827z"/>
<g style="opacity:0.2;">
	<path style="fill:#493023;" d="M157.215,370.448h-12.047c-4.991,0-9.035-4.045-9.035-9.035c0-4.99,4.044-9.035,9.035-9.035h12.047
		c4.991,0,9.035,4.045,9.035,9.035C166.25,366.403,162.206,370.448,157.215,370.448z"/>
	<path style="fill:#493023;" d="M342.737,370.448H330.69c-4.991,0-9.035-4.045-9.035-9.035c0-4.99,4.044-9.035,9.035-9.035h12.047
		c4.991,0,9.035,4.045,9.035,9.035C351.772,366.403,347.728,370.448,342.737,370.448z"/>
</g>
<circle style="fill:#AB5034;" cx="183.716" cy="337.313" r="18.07"/>
<circle style="fill:#6F3D28;" cx="304.185" cy="337.313" r="18.07"/>
<path style="fill:#D5D2BD;" d="M429.929,123.479H57.972c-0.548,3.125-0.749,7.017-0.749,9.042c0,2.911,0.234,5.85,0.696,8.739
	c2.436,15.224,11.18,29.194,24.907,41.297c32.062,28.267,91.336,46.34,161.124,46.34s129.062-18.072,161.124-46.34
	c13.729-12.104,22.472-26.074,24.908-41.299c0.461-2.886,0.695-5.826,0.695-8.736C430.679,129.473,430.416,126.457,429.929,123.479z
	"/>
<path style="fill:#E7E4CD;" d="M82.827,164.487c32.062,28.267,91.336,46.34,161.124,46.34s129.062-18.072,161.124-46.34
	c13.641-12.026,22.354-25.9,24.854-41.011c-4.043-24.702-24.664-46.72-59.111-62.714c-34.189-15.873-79.245-24.615-126.868-24.615
	s-92.679,8.742-126.868,24.615c-34.445,15.993-55.065,38.01-59.109,62.713C60.472,138.587,69.186,152.461,82.827,164.487z"/>
<path style="fill:#C1BDAB;" d="M132.303,93.542c-24.382,11.32-38.938,25.892-38.938,38.98c0,1.006,0.082,2.026,0.242,3.03
	c3.837,23.983,58.218,57.205,150.344,57.205l48.188-57.825l-48.188-62.644C201.475,72.287,161.824,79.836,132.303,93.542z"/>
<path style="fill:#D5D2BD;" d="M355.6,93.543c-29.522-13.707-69.173-21.256-111.65-21.256v120.469
	c92.126,0,146.507-33.224,150.344-57.201c0.16-1.006,0.242-2.027,0.242-3.033C394.538,119.434,379.982,104.862,355.6,93.543z"/>
<path style="fill:#684C77;" d="M110.087,158.268c23.017,18.079,69.119,34.488,133.864,34.488s110.847-16.41,133.864-34.488
	c-28.09-20.542-77.541-34.18-133.864-34.18C187.627,124.089,138.177,137.727,110.087,158.268z"/>
<path style="fill:#796093;" d="M144.209,176.636c24.952,9.481,58.571,16.12,99.742,16.12s74.79-6.64,99.741-16.121
	c-27.232-10.254-61.932-16.405-99.741-16.405C206.142,160.23,171.442,166.382,144.209,176.636z"/>
<path style="fill:#BD7155;" d="M453.382,11.126c-3.838-9.211-14.421-13.573-23.63-9.729l-122.22,50.924
	c-19.238,8.016-33.74,24.872-38.796,45.092l-12.441,49.766c-1.235,4.938-0.305,10.168,2.556,14.378l0.305,0.448
	c5.369,7.899,16.001,10.18,24.137,5.178l0,0c3.98-2.447,6.843-6.355,7.976-10.888l12.529-50.116
	c2.297-9.191,8.891-16.852,17.634-20.498l122.218-50.924C452.864,30.918,457.22,20.339,453.382,11.126z"/>
<path style="fill:#AB5034;" d="M444.208,13.444l-122.22,50.924c-19.238,8.016-33.74,24.872-38.796,45.092l-12.441,49.766
	c-0.869,3.473-0.643,7.085,0.549,10.39c4.025,0.602,8.269-0.145,11.993-2.435c3.98-2.447,6.843-6.355,7.976-10.888l12.529-50.116
	c2.297-9.191,8.891-16.852,17.634-20.498l122.218-50.922c8.836-3.682,13.184-13.562,10.137-22.494
	C450.65,11.796,447.351,12.132,444.208,13.444z"/>
</svg>